<svg xmlns="http://www.w3.org/2000/svg" width="127" height="68" viewBox="0 0 127 68">
    <path fill="#516F32" fill-rule="evenodd" d="M126.883 45.139c0-12.328-10.865-20.977-22.655-20.977-11.782 0-22.64 8.649-22.64 20.977 0 13.186 9.502 22.485 22.64 22.485 13.145 0 22.655-9.299 22.655-22.485zm-47.434 0c0-12.328-10.865-20.977-22.645-20.977-11.785 0-22.644 8.649-22.644 20.977 0 13.186 9.508 22.485 22.644 22.485 13.14 0 22.645-9.299 22.645-22.485zM35.085 57.296v8.98H0L19.39 34.49H3.316v-8.98h33.888L17.92 57.295h17.165zM115.8 45.192c0 7.025-5.21 12.164-11.573 12.164-6.35 0-11.572-5.139-11.572-12.164 0-5.623 5.221-10.764 11.572-10.764 6.362 0 11.573 5.14 11.573 10.764zm-47.431 0c0 7.025-5.209 12.164-11.566 12.164-6.353 0-11.568-5.139-11.568-12.164 0-5.623 5.215-10.764 11.568-10.764 6.357 0 11.566 5.14 11.566 10.764zM17.584 18.514V.292h-3.852L12.174 4.74c-.79 2.236-1.459 4.352-1.707 5.624-.229-1.272-.917-3.432-1.692-5.596L7.198.292H3.314v18.222h3.884V14.48c0-1.952-.053-3.78-.098-5.283.379 1.424 1.117 3.72 1.675 5.33l1.692 4.56 1.679-4.56c.566-1.64 1.306-3.906 1.685-5.33-.074 1.557-.1 3.33-.1 5.283v4.034h3.853zm13.143 0v-3.717h-6.406v-3.965h4.061V7.136h-4.061v-3.12h6.23V.292H20.088v18.222h10.638zm11.922 0v-3.801h-5.562V.292h-4.285v18.222h9.847zm13.682-5.597c0-2.217-.896-3.41-2.344-4.09 1.247-.695 2.067-1.742 2.067-3.72 0-3.202-1.664-4.815-5.184-4.815h-6.39v18.222h6.285c3.779 0 5.566-2.056 5.566-5.597zm-4.442-7.424c0 1.276-.456 1.908-1.379 1.908h-1.933V3.673h1.888c.994 0 1.424.572 1.424 1.82zm18.598 3.879c0-6.397-2.368-9.372-6.37-9.372-4.008 0-6.413 2.989-6.413 9.427 0 6.434 2.351 9.373 6.361 9.373 4.023 0 6.422-2.995 6.422-9.428zm-4.385.055c0 4.402-.66 5.62-1.985 5.62-1.326 0-2.018-1.272-2.018-5.675 0-4.402.64-5.623 1.99-5.623 1.333 0 2.013 1.283 2.013 5.678zm18.529 2.712V.292h-4.322v12.07c0 1.75-.506 2.669-1.757 2.669-1.271 0-1.834-.918-1.834-2.67V.291h-4.316V12.24c0 4.48 2.37 6.56 6.079 6.56 3.798 0 6.15-2.054 6.15-6.66zm14.39 6.375l-2.598-7.893c1.45-.876 2.342-2.415 2.342-4.788 0-4.055-2.32-5.541-5.53-5.541h-6.177v18.222h4.18v-6.983h1.15l2.09 6.983h4.543zM94.529 5.965c0 1.507-.462 2.241-1.687 2.241H91.24V3.75h1.686c1.174 0 1.604.71 1.604 2.216zm18.689 12.55V.291h-4.006v4.09c0 1.66.044 4.188.147 5.185-.321-.997-1.352-3.24-2.373-5.108L104.718.292h-3.733v18.222h4.007V13.36c0-1.722-.02-4.034-.122-5.08.358 1.046 1.297 3.024 2.298 5.006l2.626 5.23h3.424zm12.967 0v-3.718h-6.228v-3.965h4.057V7.136h-4.057v-3.12h6.228V.292h-10.466v18.222h10.466zm-74.045-5.24c0 1.364-.528 2.04-1.524 2.04h-2.039V11.11h1.986c1.05 0 1.577.672 1.577 2.164z"/>
</svg>
